<svg width="440" height="620" viewBox="0 0 440 620" fill="none" xmlns="http://www.w3.org/2000/svg">
  <defs>
    <linearGradient id="panelBg" x1="0" y1="0" x2="1" y2="1">
      <stop offset="0" stop-color="#171C29"/>
      <stop offset="1" stop-color="#0D1018"/>
    </linearGradient>
    <linearGradient id="steel" x1="0" y1="0" x2="0" y2="1">
      <stop offset="0" stop-color="#8C97AD"/>
      <stop offset="1" stop-color="#555F74"/>
    </linearGradient>
    <linearGradient id="cloth" x1="0" y1="0" x2="0" y2="1">
      <stop offset="0" stop-color="#5B6579"/>
      <stop offset="1" stop-color="#333B4D"/>
    </linearGradient>
    <linearGradient id="shieldGrad" x1="0" y1="0" x2="1" y2="1">
      <stop offset="0" stop-color="#313B50"/>
      <stop offset="1" stop-color="#1B2230"/>
    </linearGradient>
    <radialGradient id="vignette" cx="0" cy="0" r="1" gradientUnits="userSpaceOnUse" gradientTransform="translate(220 310) rotate(90) scale(280 190)">
      <stop stop-color="#8FA3CC" stop-opacity="0.22"/>
      <stop offset="1" stop-color="#8FA3CC" stop-opacity="0"/>
    </radialGradient>
  </defs>

  <rect x="10" y="10" width="420" height="600" rx="20" fill="url(#panelBg)" stroke="#414D66" stroke-width="2"/>
  <ellipse cx="220" cy="310" rx="190" ry="280" fill="url(#vignette)"/>

  <!-- body silhouette -->
  <path d="M170 540V456C170 432 186 412 210 408L224 406L238 408C262 412 278 432 278 456V540H170Z" fill="#2A3141"/>
  <path d="M178 552H218V574H170C170 562 174 555 178 552Z" fill="#1E2431"/>
  <path d="M230 552H270C274 555 278 562 278 574H230V552Z" fill="#1E2431"/>

  <!-- armor torso -->
  <rect x="178" y="230" width="92" height="192" rx="26" fill="url(#steel)" stroke="#A8B4CD" stroke-width="2"/>
  <path d="M178 282H270" stroke="#BFC9DD" stroke-opacity="0.55" stroke-width="2"/>
  <path d="M224 230V422" stroke="#C7D3E8" stroke-opacity="0.45" stroke-width="2"/>

  <!-- helmet -->
  <rect x="194" y="146" width="60" height="72" rx="20" fill="url(#steel)" stroke="#B7C1D7" stroke-width="2"/>
  <rect x="204" y="120" width="40" height="30" rx="10" fill="#6E7890" stroke="#B7C1D7" stroke-width="2"/>
  <rect x="213" y="164" width="22" height="40" rx="6" fill="#111723"/>
  <path d="M203 184H245" stroke="#C7D3E8" stroke-opacity="0.35" stroke-width="2"/>

  <!-- pauldrons and belt -->
  <rect x="150" y="242" width="34" height="82" rx="12" fill="#5A647A" stroke="#AEB9D0" stroke-width="2"/>
  <rect x="264" y="242" width="34" height="82" rx="12" fill="#5A647A" stroke="#AEB9D0" stroke-width="2"/>
  <rect x="176" y="352" width="96" height="24" rx="10" fill="#4A556B" stroke="#94A3BE" stroke-width="2"/>
  <rect x="212" y="356" width="24" height="16" rx="5" fill="#1A2231"/>

  <!-- cloak -->
  <path d="M158 268L132 428C128 454 144 474 168 474H188V280L158 268Z" fill="url(#cloth)"/>
  <path d="M290 268L316 428C320 454 304 474 280 474H260V280L290 268Z" fill="url(#cloth)"/>

  <!-- weapon -->
  <path d="M128 316L100 374L116 382L146 326L128 316Z" fill="#6D7990"/>
  <rect x="106" y="378" width="46" height="8" rx="3" transform="rotate(24 106 378)" fill="#9FACBE"/>

  <!-- shield -->
  <path d="M298 286L346 300V368C346 409 325 438 298 452C271 438 250 409 250 368V300L298 286Z" fill="url(#shieldGrad)" stroke="#9DACCA" stroke-width="2"/>
  <path d="M298 316V420" stroke="#DCE6F8" stroke-width="8" stroke-linecap="round"/>
  <path d="M266 366H330" stroke="#DCE6F8" stroke-width="8" stroke-linecap="round"/>
  <path d="M298 286L346 300V368C346 409 325 438 298 452" stroke="#EAF0FF" stroke-opacity="0.22" stroke-width="3"/>
</svg>
